<svg xmlns="http://www.w3.org/2000/svg" viewBox="0 0 1200 560" width="1200" height="560" role="img" aria-label="orbitchip hero">
<title>orbitchip hero</title>
<rect width="1200" height="560" fill="#0f1714"/>
<defs><linearGradient id="gh" x1="0" y1="0" x2="1" y2="1"><stop offset="0%" stop-color="#95d5b2"/><stop offset="100%" stop-color="#b8a1e6"/></linearGradient></defs><rect x="96.00" y="150.00" width="88.00" height="72.00" rx="8.00" fill="#95d5b2" opacity="0.44"/><rect x="196.00" y="150.00" width="88.00" height="72.00" rx="8.00" fill="#b8a1e6" opacity="0.85"/><rect x="296.00" y="150.00" width="88.00" height="72.00" rx="8.00" fill="#ffd6a5" opacity="0.60"/><rect x="396.00" y="150.00" width="88.00" height="72.00" rx="8.00" fill="#95d5b2" opacity="0.64"/><rect x="496.00" y="150.00" width="88.00" height="72.00" rx="8.00" fill="#b8a1e6" opacity="0.38"/><rect x="596.00" y="150.00" width="88.00" height="72.00" rx="8.00" fill="#ffd6a5" opacity="0.70"/><rect x="696.00" y="150.00" width="88.00" height="72.00" rx="8.00" fill="#95d5b2" opacity="0.64"/><rect x="796.00" y="150.00" width="88.00" height="72.00" rx="8.00" fill="#b8a1e6" opacity="0.38"/><rect x="896.00" y="150.00" width="88.00" height="72.00" rx="8.00" fill="#ffd6a5" opacity="0.80"/><rect x="996.00" y="150.00" width="88.00" height="72.00" rx="8.00" fill="#95d5b2" opacity="0.82"/><rect x="96.00" y="234.00" width="88.00" height="72.00" rx="8.00" fill="#b8a1e6" opacity="0.58"/><rect x="196.00" y="234.00" width="88.00" height="72.00" rx="8.00" fill="#ffd6a5" opacity="0.70"/><rect x="296.00" y="234.00" width="88.00" height="72.00" rx="8.00" fill="#95d5b2" opacity="0.85"/><rect x="396.00" y="234.00" width="88.00" height="72.00" rx="8.00" fill="#b8a1e6" opacity="0.67"/><rect x="496.00" y="234.00" width="88.00" height="72.00" rx="8.00" fill="#ffd6a5" opacity="0.51"/><rect x="596.00" y="234.00" width="88.00" height="72.00" rx="8.00" fill="#95d5b2" opacity="0.85"/><rect x="696.00" y="234.00" width="88.00" height="72.00" rx="8.00" fill="#b8a1e6" opacity="0.40"/><rect x="796.00" y="234.00" width="88.00" height="72.00" rx="8.00" fill="#ffd6a5" opacity="0.56"/><rect x="896.00" y="234.00" width="88.00" height="72.00" rx="8.00" fill="#95d5b2" opacity="0.39"/><rect x="996.00" y="234.00" width="88.00" height="72.00" rx="8.00" fill="#b8a1e6" opacity="0.51"/><rect x="96.00" y="318.00" width="88.00" height="72.00" rx="8.00" fill="#ffd6a5" opacity="0.57"/><rect x="196.00" y="318.00" width="88.00" height="72.00" rx="8.00" fill="#95d5b2" opacity="0.55"/><rect x="296.00" y="318.00" width="88.00" height="72.00" rx="8.00" fill="#b8a1e6" opacity="0.79"/><rect x="396.00" y="318.00" width="88.00" height="72.00" rx="8.00" fill="#ffd6a5" opacity="0.83"/><rect x="496.00" y="318.00" width="88.00" height="72.00" rx="8.00" fill="#95d5b2" opacity="0.85"/><rect x="596.00" y="318.00" width="88.00" height="72.00" rx="8.00" fill="#b8a1e6" opacity="0.57"/><rect x="696.00" y="318.00" width="88.00" height="72.00" rx="8.00" fill="#ffd6a5" opacity="0.90"/><rect x="796.00" y="318.00" width="88.00" height="72.00" rx="8.00" fill="#95d5b2" opacity="0.45"/><rect x="896.00" y="318.00" width="88.00" height="72.00" rx="8.00" fill="#b8a1e6" opacity="0.82"/><rect x="996.00" y="318.00" width="88.00" height="72.00" rx="8.00" fill="#ffd6a5" opacity="0.39"/><rect x="96.00" y="402.00" width="88.00" height="72.00" rx="8.00" fill="#95d5b2" opacity="0.49"/><rect x="196.00" y="402.00" width="88.00" height="72.00" rx="8.00" fill="#b8a1e6" opacity="0.57"/><rect x="296.00" y="402.00" width="88.00" height="72.00" rx="8.00" fill="#ffd6a5" opacity="0.90"/><rect x="396.00" y="402.00" width="88.00" height="72.00" rx="8.00" fill="#95d5b2" opacity="0.54"/><rect x="496.00" y="402.00" width="88.00" height="72.00" rx="8.00" fill="#b8a1e6" opacity="0.87"/><rect x="596.00" y="402.00" width="88.00" height="72.00" rx="8.00" fill="#ffd6a5" opacity="0.44"/><rect x="696.00" y="402.00" width="88.00" height="72.00" rx="8.00" fill="#95d5b2" opacity="0.45"/><rect x="796.00" y="402.00" width="88.00" height="72.00" rx="8.00" fill="#b8a1e6" opacity="0.50"/><rect x="896.00" y="402.00" width="88.00" height="72.00" rx="8.00" fill="#ffd6a5" opacity="0.54"/><rect x="996.00" y="402.00" width="88.00" height="72.00" rx="8.00" fill="#95d5b2" opacity="0.88"/><rect x="96.00" y="486.00" width="88.00" height="72.00" rx="8.00" fill="#b8a1e6" opacity="0.54"/><rect x="196.00" y="486.00" width="88.00" height="72.00" rx="8.00" fill="#ffd6a5" opacity="0.74"/><rect x="296.00" y="486.00" width="88.00" height="72.00" rx="8.00" fill="#95d5b2" opacity="0.94"/><rect x="396.00" y="486.00" width="88.00" height="72.00" rx="8.00" fill="#b8a1e6" opacity="0.60"/><rect x="496.00" y="486.00" width="88.00" height="72.00" rx="8.00" fill="#ffd6a5" opacity="0.93"/><rect x="596.00" y="486.00" width="88.00" height="72.00" rx="8.00" fill="#95d5b2" opacity="0.37"/><rect x="696.00" y="486.00" width="88.00" height="72.00" rx="8.00" fill="#b8a1e6" opacity="0.59"/><rect x="796.00" y="486.00" width="88.00" height="72.00" rx="8.00" fill="#ffd6a5" opacity="0.85"/><rect x="896.00" y="486.00" width="88.00" height="72.00" rx="8.00" fill="#95d5b2" opacity="0.58"/><rect x="996.00" y="486.00" width="88.00" height="72.00" rx="8.00" fill="#b8a1e6" opacity="0.73"/><g><rect x="96.00" y="150.00" width="88.00" height="72.00" rx="8.00" fill="#ffd6a5" opacity="0.80"/><animate attributeName="opacity" values="0.25;1.0;0.25" dur="6.8s" begin="3.77s" repeatCount="indefinite" /></g><g><rect x="196.00" y="150.00" width="88.00" height="72.00" rx="8.00" fill="#ffd6a5" opacity="0.80"/><animate attributeName="opacity" values="0.25;1.0;0.25" dur="6.8s" begin="4.09s" repeatCount="indefinite" /></g><g><rect x="296.00" y="150.00" width="88.00" height="72.00" rx="8.00" fill="#ffd6a5" opacity="0.80"/><animate attributeName="opacity" values="0.25;1.0;0.25" dur="6.8s" begin="4.41s" repeatCount="indefinite" /></g><g><rect x="396.00" y="150.00" width="88.00" height="72.00" rx="8.00" fill="#ffd6a5" opacity="0.80"/><animate attributeName="opacity" values="0.25;1.0;0.25" dur="6.8s" begin="4.73s" repeatCount="indefinite" /></g><g><rect x="496.00" y="150.00" width="88.00" height="72.00" rx="8.00" fill="#ffd6a5" opacity="0.80"/><animate attributeName="opacity" values="0.25;1.0;0.25" dur="6.8s" begin="5.05s" repeatCount="indefinite" /></g><g><rect x="596.00" y="150.00" width="88.00" height="72.00" rx="8.00" fill="#ffd6a5" opacity="0.80"/><animate attributeName="opacity" values="0.25;1.0;0.25" dur="6.8s" begin="5.37s" repeatCount="indefinite" /></g><g><rect x="696.00" y="150.00" width="88.00" height="72.00" rx="8.00" fill="#ffd6a5" opacity="0.80"/><animate attributeName="opacity" values="0.25;1.0;0.25" dur="6.8s" begin="5.6899999999999995s" repeatCount="indefinite" /></g><g><rect x="796.00" y="150.00" width="88.00" height="72.00" rx="8.00" fill="#ffd6a5" opacity="0.80"/><animate attributeName="opacity" values="0.25;1.0;0.25" dur="6.8s" begin="6.01s" repeatCount="indefinite" /></g><g><rect x="896.00" y="150.00" width="88.00" height="72.00" rx="8.00" fill="#ffd6a5" opacity="0.80"/><animate attributeName="opacity" values="0.25;1.0;0.25" dur="6.8s" begin="6.33s" repeatCount="indefinite" /></g><g><rect x="996.00" y="150.00" width="88.00" height="72.00" rx="8.00" fill="#ffd6a5" opacity="0.80"/><animate attributeName="opacity" values="0.25;1.0;0.25" dur="6.8s" begin="6.65s" repeatCount="indefinite" /></g>
</svg>